%TF.GenerationSoftware,KiCad,Pcbnew,9.0.6*%
%TF.CreationDate,2025-12-04T16:08:16+01:00*%
%TF.ProjectId,ASUS BTF GPU Mini-ITX Adapter,41535553-2042-4544-9620-475055204d69,rev?*%
%TF.SameCoordinates,Original*%
%TF.FileFunction,Soldermask,Top*%
%TF.FilePolarity,Negative*%
%FSLAX46Y46*%
G04 Gerber Fmt 4.6, Leading zero omitted, Abs format (unit mm)*
G04 Created by KiCad (PCBNEW 9.0.6) date 2025-12-04 16:08:16*
%MOMM*%
%LPD*%
G01*
G04 APERTURE LIST*
G04 Aperture macros list*
%AMRoundRect*
0 Rectangle with rounded corners*
0 $1 Rounding radius*
0 $2 $3 $4 $5 $6 $7 $8 $9 X,Y pos of 4 corners*
0 Add a 4 corners polygon primitive as box body*
4,1,4,$2,$3,$4,$5,$6,$7,$8,$9,$2,$3,0*
0 Add four circle primitives for the rounded corners*
1,1,$1+$1,$2,$3*
1,1,$1+$1,$4,$5*
1,1,$1+$1,$6,$7*
1,1,$1+$1,$8,$9*
0 Add four rect primitives between the rounded corners*
20,1,$1+$1,$2,$3,$4,$5,0*
20,1,$1+$1,$4,$5,$6,$7,0*
20,1,$1+$1,$6,$7,$8,$9,0*
20,1,$1+$1,$8,$9,$2,$3,0*%
G04 Aperture macros list end*
%ADD10C,2.210000*%
%ADD11C,1.854000*%
%ADD12C,1.704000*%
%ADD13RoundRect,0.102000X-0.785000X-0.785000X0.785000X-0.785000X0.785000X0.785000X-0.785000X0.785000X0*%
%ADD14C,1.774000*%
%ADD15C,1.354000*%
G04 APERTURE END LIST*
D10*
%TO.C,REF\u002A\u002A*%
X164990000Y-104000000D03*
X198010000Y-105350000D03*
D11*
X167530000Y-105350000D03*
X170070000Y-105350000D03*
X172610000Y-105350000D03*
X175150000Y-105350000D03*
X177690000Y-105350000D03*
X180230000Y-105350000D03*
X182770000Y-105350000D03*
X185310000Y-105350000D03*
X185310000Y-102650000D03*
X182770000Y-102650000D03*
X180230000Y-102650000D03*
X177690000Y-102650000D03*
X175150000Y-102650000D03*
X172610000Y-102650000D03*
X170070000Y-102650000D03*
X167530000Y-102650000D03*
D12*
X188810000Y-105905000D03*
X190080000Y-104635000D03*
X191350000Y-105905000D03*
X192620000Y-104635000D03*
X193890000Y-105905000D03*
X195160000Y-104635000D03*
X195160000Y-102095000D03*
X193890000Y-103365000D03*
X192620000Y-102095000D03*
X191350000Y-103365000D03*
X190080000Y-102095000D03*
X188810000Y-103365000D03*
%TD*%
D13*
%TO.C,REF\u002A\u002A*%
X198193250Y-116180000D03*
D14*
X195193250Y-116180000D03*
X192193250Y-116180000D03*
X189193250Y-116180000D03*
X186193250Y-116180000D03*
X183193250Y-116180000D03*
X198193250Y-113180000D03*
X195193250Y-113180000D03*
X192193250Y-113180000D03*
X189193250Y-113180000D03*
X186193250Y-113180000D03*
X183193250Y-113180000D03*
D15*
X193693250Y-117850000D03*
X191693250Y-117850000D03*
X189693250Y-117850000D03*
X187693250Y-117850000D03*
%TD*%
M02*
