%TF.GenerationSoftware,KiCad,Pcbnew,9.0.6*%
%TF.CreationDate,2025-12-04T16:08:16+01:00*%
%TF.ProjectId,ASUS BTF GPU Mini-ITX Adapter,41535553-2042-4544-9620-475055204d69,rev?*%
%TF.SameCoordinates,Original*%
%TF.FileFunction,Legend,Top*%
%TF.FilePolarity,Positive*%
%FSLAX46Y46*%
G04 Gerber Fmt 4.6, Leading zero omitted, Abs format (unit mm)*
G04 Created by KiCad (PCBNEW 9.0.6) date 2025-12-04 16:08:16*
%MOMM*%
%LPD*%
G01*
G04 APERTURE LIST*
%ADD10C,0.075000*%
%ADD11C,0.127000*%
%ADD12C,0.200000*%
G04 APERTURE END LIST*
D10*
X163632675Y-123453266D02*
X163632675Y-123103266D01*
X163782675Y-123453266D02*
X163782675Y-123269933D01*
X163782675Y-123269933D02*
X163766008Y-123236600D01*
X163766008Y-123236600D02*
X163732675Y-123219933D01*
X163732675Y-123219933D02*
X163682675Y-123219933D01*
X163682675Y-123219933D02*
X163649342Y-123236600D01*
X163649342Y-123236600D02*
X163632675Y-123253266D01*
X163899342Y-123219933D02*
X164032675Y-123219933D01*
X163949342Y-123103266D02*
X163949342Y-123403266D01*
X163949342Y-123403266D02*
X163966009Y-123436600D01*
X163966009Y-123436600D02*
X163999342Y-123453266D01*
X163999342Y-123453266D02*
X164032675Y-123453266D01*
X164099342Y-123219933D02*
X164232675Y-123219933D01*
X164149342Y-123103266D02*
X164149342Y-123403266D01*
X164149342Y-123403266D02*
X164166009Y-123436600D01*
X164166009Y-123436600D02*
X164199342Y-123453266D01*
X164199342Y-123453266D02*
X164232675Y-123453266D01*
X164349342Y-123219933D02*
X164349342Y-123569933D01*
X164349342Y-123236600D02*
X164382675Y-123219933D01*
X164382675Y-123219933D02*
X164449342Y-123219933D01*
X164449342Y-123219933D02*
X164482675Y-123236600D01*
X164482675Y-123236600D02*
X164499342Y-123253266D01*
X164499342Y-123253266D02*
X164516009Y-123286600D01*
X164516009Y-123286600D02*
X164516009Y-123386600D01*
X164516009Y-123386600D02*
X164499342Y-123419933D01*
X164499342Y-123419933D02*
X164482675Y-123436600D01*
X164482675Y-123436600D02*
X164449342Y-123453266D01*
X164449342Y-123453266D02*
X164382675Y-123453266D01*
X164382675Y-123453266D02*
X164349342Y-123436600D01*
X164649342Y-123436600D02*
X164682676Y-123453266D01*
X164682676Y-123453266D02*
X164749342Y-123453266D01*
X164749342Y-123453266D02*
X164782676Y-123436600D01*
X164782676Y-123436600D02*
X164799342Y-123403266D01*
X164799342Y-123403266D02*
X164799342Y-123386600D01*
X164799342Y-123386600D02*
X164782676Y-123353266D01*
X164782676Y-123353266D02*
X164749342Y-123336600D01*
X164749342Y-123336600D02*
X164699342Y-123336600D01*
X164699342Y-123336600D02*
X164666009Y-123319933D01*
X164666009Y-123319933D02*
X164649342Y-123286600D01*
X164649342Y-123286600D02*
X164649342Y-123269933D01*
X164649342Y-123269933D02*
X164666009Y-123236600D01*
X164666009Y-123236600D02*
X164699342Y-123219933D01*
X164699342Y-123219933D02*
X164749342Y-123219933D01*
X164749342Y-123219933D02*
X164782676Y-123236600D01*
X164949342Y-123419933D02*
X164966009Y-123436600D01*
X164966009Y-123436600D02*
X164949342Y-123453266D01*
X164949342Y-123453266D02*
X164932675Y-123436600D01*
X164932675Y-123436600D02*
X164949342Y-123419933D01*
X164949342Y-123419933D02*
X164949342Y-123453266D01*
X164949342Y-123236600D02*
X164966009Y-123253266D01*
X164966009Y-123253266D02*
X164949342Y-123269933D01*
X164949342Y-123269933D02*
X164932675Y-123253266D01*
X164932675Y-123253266D02*
X164949342Y-123236600D01*
X164949342Y-123236600D02*
X164949342Y-123269933D01*
X165366009Y-123086600D02*
X165066009Y-123536600D01*
X165732676Y-123086600D02*
X165432676Y-123536600D01*
X165999343Y-123219933D02*
X165999343Y-123503266D01*
X165999343Y-123503266D02*
X165982676Y-123536600D01*
X165982676Y-123536600D02*
X165966010Y-123553266D01*
X165966010Y-123553266D02*
X165932676Y-123569933D01*
X165932676Y-123569933D02*
X165882676Y-123569933D01*
X165882676Y-123569933D02*
X165849343Y-123553266D01*
X165999343Y-123436600D02*
X165966010Y-123453266D01*
X165966010Y-123453266D02*
X165899343Y-123453266D01*
X165899343Y-123453266D02*
X165866010Y-123436600D01*
X165866010Y-123436600D02*
X165849343Y-123419933D01*
X165849343Y-123419933D02*
X165832676Y-123386600D01*
X165832676Y-123386600D02*
X165832676Y-123286600D01*
X165832676Y-123286600D02*
X165849343Y-123253266D01*
X165849343Y-123253266D02*
X165866010Y-123236600D01*
X165866010Y-123236600D02*
X165899343Y-123219933D01*
X165899343Y-123219933D02*
X165966010Y-123219933D01*
X165966010Y-123219933D02*
X165999343Y-123236600D01*
X166166010Y-123453266D02*
X166166010Y-123219933D01*
X166166010Y-123103266D02*
X166149343Y-123119933D01*
X166149343Y-123119933D02*
X166166010Y-123136600D01*
X166166010Y-123136600D02*
X166182677Y-123119933D01*
X166182677Y-123119933D02*
X166166010Y-123103266D01*
X166166010Y-123103266D02*
X166166010Y-123136600D01*
X166282677Y-123219933D02*
X166416010Y-123219933D01*
X166332677Y-123103266D02*
X166332677Y-123403266D01*
X166332677Y-123403266D02*
X166349344Y-123436600D01*
X166349344Y-123436600D02*
X166382677Y-123453266D01*
X166382677Y-123453266D02*
X166416010Y-123453266D01*
X166532677Y-123453266D02*
X166532677Y-123103266D01*
X166682677Y-123453266D02*
X166682677Y-123269933D01*
X166682677Y-123269933D02*
X166666010Y-123236600D01*
X166666010Y-123236600D02*
X166632677Y-123219933D01*
X166632677Y-123219933D02*
X166582677Y-123219933D01*
X166582677Y-123219933D02*
X166549344Y-123236600D01*
X166549344Y-123236600D02*
X166532677Y-123253266D01*
X166999344Y-123219933D02*
X166999344Y-123453266D01*
X166849344Y-123219933D02*
X166849344Y-123403266D01*
X166849344Y-123403266D02*
X166866011Y-123436600D01*
X166866011Y-123436600D02*
X166899344Y-123453266D01*
X166899344Y-123453266D02*
X166949344Y-123453266D01*
X166949344Y-123453266D02*
X166982677Y-123436600D01*
X166982677Y-123436600D02*
X166999344Y-123419933D01*
X167166011Y-123453266D02*
X167166011Y-123103266D01*
X167166011Y-123236600D02*
X167199344Y-123219933D01*
X167199344Y-123219933D02*
X167266011Y-123219933D01*
X167266011Y-123219933D02*
X167299344Y-123236600D01*
X167299344Y-123236600D02*
X167316011Y-123253266D01*
X167316011Y-123253266D02*
X167332678Y-123286600D01*
X167332678Y-123286600D02*
X167332678Y-123386600D01*
X167332678Y-123386600D02*
X167316011Y-123419933D01*
X167316011Y-123419933D02*
X167299344Y-123436600D01*
X167299344Y-123436600D02*
X167266011Y-123453266D01*
X167266011Y-123453266D02*
X167199344Y-123453266D01*
X167199344Y-123453266D02*
X167166011Y-123436600D01*
X167482678Y-123419933D02*
X167499345Y-123436600D01*
X167499345Y-123436600D02*
X167482678Y-123453266D01*
X167482678Y-123453266D02*
X167466011Y-123436600D01*
X167466011Y-123436600D02*
X167482678Y-123419933D01*
X167482678Y-123419933D02*
X167482678Y-123453266D01*
X167799345Y-123436600D02*
X167766012Y-123453266D01*
X167766012Y-123453266D02*
X167699345Y-123453266D01*
X167699345Y-123453266D02*
X167666012Y-123436600D01*
X167666012Y-123436600D02*
X167649345Y-123419933D01*
X167649345Y-123419933D02*
X167632678Y-123386600D01*
X167632678Y-123386600D02*
X167632678Y-123286600D01*
X167632678Y-123286600D02*
X167649345Y-123253266D01*
X167649345Y-123253266D02*
X167666012Y-123236600D01*
X167666012Y-123236600D02*
X167699345Y-123219933D01*
X167699345Y-123219933D02*
X167766012Y-123219933D01*
X167766012Y-123219933D02*
X167799345Y-123236600D01*
X167999345Y-123453266D02*
X167966012Y-123436600D01*
X167966012Y-123436600D02*
X167949345Y-123419933D01*
X167949345Y-123419933D02*
X167932678Y-123386600D01*
X167932678Y-123386600D02*
X167932678Y-123286600D01*
X167932678Y-123286600D02*
X167949345Y-123253266D01*
X167949345Y-123253266D02*
X167966012Y-123236600D01*
X167966012Y-123236600D02*
X167999345Y-123219933D01*
X167999345Y-123219933D02*
X168049345Y-123219933D01*
X168049345Y-123219933D02*
X168082678Y-123236600D01*
X168082678Y-123236600D02*
X168099345Y-123253266D01*
X168099345Y-123253266D02*
X168116012Y-123286600D01*
X168116012Y-123286600D02*
X168116012Y-123386600D01*
X168116012Y-123386600D02*
X168099345Y-123419933D01*
X168099345Y-123419933D02*
X168082678Y-123436600D01*
X168082678Y-123436600D02*
X168049345Y-123453266D01*
X168049345Y-123453266D02*
X167999345Y-123453266D01*
X168266012Y-123453266D02*
X168266012Y-123219933D01*
X168266012Y-123253266D02*
X168282679Y-123236600D01*
X168282679Y-123236600D02*
X168316012Y-123219933D01*
X168316012Y-123219933D02*
X168366012Y-123219933D01*
X168366012Y-123219933D02*
X168399345Y-123236600D01*
X168399345Y-123236600D02*
X168416012Y-123269933D01*
X168416012Y-123269933D02*
X168416012Y-123453266D01*
X168416012Y-123269933D02*
X168432679Y-123236600D01*
X168432679Y-123236600D02*
X168466012Y-123219933D01*
X168466012Y-123219933D02*
X168516012Y-123219933D01*
X168516012Y-123219933D02*
X168549345Y-123236600D01*
X168549345Y-123236600D02*
X168566012Y-123269933D01*
X168566012Y-123269933D02*
X168566012Y-123453266D01*
X168982679Y-123086600D02*
X168682679Y-123536600D01*
X169249346Y-123453266D02*
X169249346Y-123269933D01*
X169249346Y-123269933D02*
X169232679Y-123236600D01*
X169232679Y-123236600D02*
X169199346Y-123219933D01*
X169199346Y-123219933D02*
X169132679Y-123219933D01*
X169132679Y-123219933D02*
X169099346Y-123236600D01*
X169249346Y-123436600D02*
X169216013Y-123453266D01*
X169216013Y-123453266D02*
X169132679Y-123453266D01*
X169132679Y-123453266D02*
X169099346Y-123436600D01*
X169099346Y-123436600D02*
X169082679Y-123403266D01*
X169082679Y-123403266D02*
X169082679Y-123369933D01*
X169082679Y-123369933D02*
X169099346Y-123336600D01*
X169099346Y-123336600D02*
X169132679Y-123319933D01*
X169132679Y-123319933D02*
X169216013Y-123319933D01*
X169216013Y-123319933D02*
X169249346Y-123303266D01*
X169416013Y-123453266D02*
X169416013Y-123219933D01*
X169416013Y-123286600D02*
X169432680Y-123253266D01*
X169432680Y-123253266D02*
X169449346Y-123236600D01*
X169449346Y-123236600D02*
X169482680Y-123219933D01*
X169482680Y-123219933D02*
X169516013Y-123219933D01*
X169782680Y-123453266D02*
X169782680Y-123269933D01*
X169782680Y-123269933D02*
X169766013Y-123236600D01*
X169766013Y-123236600D02*
X169732680Y-123219933D01*
X169732680Y-123219933D02*
X169666013Y-123219933D01*
X169666013Y-123219933D02*
X169632680Y-123236600D01*
X169782680Y-123436600D02*
X169749347Y-123453266D01*
X169749347Y-123453266D02*
X169666013Y-123453266D01*
X169666013Y-123453266D02*
X169632680Y-123436600D01*
X169632680Y-123436600D02*
X169616013Y-123403266D01*
X169616013Y-123403266D02*
X169616013Y-123369933D01*
X169616013Y-123369933D02*
X169632680Y-123336600D01*
X169632680Y-123336600D02*
X169666013Y-123319933D01*
X169666013Y-123319933D02*
X169749347Y-123319933D01*
X169749347Y-123319933D02*
X169782680Y-123303266D01*
X170099347Y-123219933D02*
X170099347Y-123503266D01*
X170099347Y-123503266D02*
X170082680Y-123536600D01*
X170082680Y-123536600D02*
X170066014Y-123553266D01*
X170066014Y-123553266D02*
X170032680Y-123569933D01*
X170032680Y-123569933D02*
X169982680Y-123569933D01*
X169982680Y-123569933D02*
X169949347Y-123553266D01*
X170099347Y-123436600D02*
X170066014Y-123453266D01*
X170066014Y-123453266D02*
X169999347Y-123453266D01*
X169999347Y-123453266D02*
X169966014Y-123436600D01*
X169966014Y-123436600D02*
X169949347Y-123419933D01*
X169949347Y-123419933D02*
X169932680Y-123386600D01*
X169932680Y-123386600D02*
X169932680Y-123286600D01*
X169932680Y-123286600D02*
X169949347Y-123253266D01*
X169949347Y-123253266D02*
X169966014Y-123236600D01*
X169966014Y-123236600D02*
X169999347Y-123219933D01*
X169999347Y-123219933D02*
X170066014Y-123219933D01*
X170066014Y-123219933D02*
X170099347Y-123236600D01*
X170332681Y-123103266D02*
X170366014Y-123103266D01*
X170366014Y-123103266D02*
X170399347Y-123119933D01*
X170399347Y-123119933D02*
X170416014Y-123136600D01*
X170416014Y-123136600D02*
X170432681Y-123169933D01*
X170432681Y-123169933D02*
X170449347Y-123236600D01*
X170449347Y-123236600D02*
X170449347Y-123319933D01*
X170449347Y-123319933D02*
X170432681Y-123386600D01*
X170432681Y-123386600D02*
X170416014Y-123419933D01*
X170416014Y-123419933D02*
X170399347Y-123436600D01*
X170399347Y-123436600D02*
X170366014Y-123453266D01*
X170366014Y-123453266D02*
X170332681Y-123453266D01*
X170332681Y-123453266D02*
X170299347Y-123436600D01*
X170299347Y-123436600D02*
X170282681Y-123419933D01*
X170282681Y-123419933D02*
X170266014Y-123386600D01*
X170266014Y-123386600D02*
X170249347Y-123319933D01*
X170249347Y-123319933D02*
X170249347Y-123236600D01*
X170249347Y-123236600D02*
X170266014Y-123169933D01*
X170266014Y-123169933D02*
X170282681Y-123136600D01*
X170282681Y-123136600D02*
X170299347Y-123119933D01*
X170299347Y-123119933D02*
X170332681Y-123103266D01*
X170599347Y-123453266D02*
X170599347Y-123219933D01*
X170599347Y-123286600D02*
X170616014Y-123253266D01*
X170616014Y-123253266D02*
X170632680Y-123236600D01*
X170632680Y-123236600D02*
X170666014Y-123219933D01*
X170666014Y-123219933D02*
X170699347Y-123219933D01*
X170949347Y-123436600D02*
X170916014Y-123453266D01*
X170916014Y-123453266D02*
X170849347Y-123453266D01*
X170849347Y-123453266D02*
X170816014Y-123436600D01*
X170816014Y-123436600D02*
X170799347Y-123403266D01*
X170799347Y-123403266D02*
X170799347Y-123269933D01*
X170799347Y-123269933D02*
X170816014Y-123236600D01*
X170816014Y-123236600D02*
X170849347Y-123219933D01*
X170849347Y-123219933D02*
X170916014Y-123219933D01*
X170916014Y-123219933D02*
X170949347Y-123236600D01*
X170949347Y-123236600D02*
X170966014Y-123269933D01*
X170966014Y-123269933D02*
X170966014Y-123303266D01*
X170966014Y-123303266D02*
X170799347Y-123336600D01*
X171366014Y-123086600D02*
X171066014Y-123536600D01*
X171466014Y-123353266D02*
X171632681Y-123353266D01*
X171432681Y-123453266D02*
X171549348Y-123103266D01*
X171549348Y-123103266D02*
X171666014Y-123453266D01*
X171766014Y-123436600D02*
X171816014Y-123453266D01*
X171816014Y-123453266D02*
X171899348Y-123453266D01*
X171899348Y-123453266D02*
X171932681Y-123436600D01*
X171932681Y-123436600D02*
X171949348Y-123419933D01*
X171949348Y-123419933D02*
X171966014Y-123386600D01*
X171966014Y-123386600D02*
X171966014Y-123353266D01*
X171966014Y-123353266D02*
X171949348Y-123319933D01*
X171949348Y-123319933D02*
X171932681Y-123303266D01*
X171932681Y-123303266D02*
X171899348Y-123286600D01*
X171899348Y-123286600D02*
X171832681Y-123269933D01*
X171832681Y-123269933D02*
X171799348Y-123253266D01*
X171799348Y-123253266D02*
X171782681Y-123236600D01*
X171782681Y-123236600D02*
X171766014Y-123203266D01*
X171766014Y-123203266D02*
X171766014Y-123169933D01*
X171766014Y-123169933D02*
X171782681Y-123136600D01*
X171782681Y-123136600D02*
X171799348Y-123119933D01*
X171799348Y-123119933D02*
X171832681Y-123103266D01*
X171832681Y-123103266D02*
X171916014Y-123103266D01*
X171916014Y-123103266D02*
X171966014Y-123119933D01*
X172116014Y-123103266D02*
X172116014Y-123386600D01*
X172116014Y-123386600D02*
X172132681Y-123419933D01*
X172132681Y-123419933D02*
X172149347Y-123436600D01*
X172149347Y-123436600D02*
X172182681Y-123453266D01*
X172182681Y-123453266D02*
X172249347Y-123453266D01*
X172249347Y-123453266D02*
X172282681Y-123436600D01*
X172282681Y-123436600D02*
X172299347Y-123419933D01*
X172299347Y-123419933D02*
X172316014Y-123386600D01*
X172316014Y-123386600D02*
X172316014Y-123103266D01*
X172466014Y-123436600D02*
X172516014Y-123453266D01*
X172516014Y-123453266D02*
X172599348Y-123453266D01*
X172599348Y-123453266D02*
X172632681Y-123436600D01*
X172632681Y-123436600D02*
X172649348Y-123419933D01*
X172649348Y-123419933D02*
X172666014Y-123386600D01*
X172666014Y-123386600D02*
X172666014Y-123353266D01*
X172666014Y-123353266D02*
X172649348Y-123319933D01*
X172649348Y-123319933D02*
X172632681Y-123303266D01*
X172632681Y-123303266D02*
X172599348Y-123286600D01*
X172599348Y-123286600D02*
X172532681Y-123269933D01*
X172532681Y-123269933D02*
X172499348Y-123253266D01*
X172499348Y-123253266D02*
X172482681Y-123236600D01*
X172482681Y-123236600D02*
X172466014Y-123203266D01*
X172466014Y-123203266D02*
X172466014Y-123169933D01*
X172466014Y-123169933D02*
X172482681Y-123136600D01*
X172482681Y-123136600D02*
X172499348Y-123119933D01*
X172499348Y-123119933D02*
X172532681Y-123103266D01*
X172532681Y-123103266D02*
X172616014Y-123103266D01*
X172616014Y-123103266D02*
X172666014Y-123119933D01*
X172816014Y-123319933D02*
X173082681Y-123319933D01*
X173366014Y-123269933D02*
X173416014Y-123286600D01*
X173416014Y-123286600D02*
X173432680Y-123303266D01*
X173432680Y-123303266D02*
X173449347Y-123336600D01*
X173449347Y-123336600D02*
X173449347Y-123386600D01*
X173449347Y-123386600D02*
X173432680Y-123419933D01*
X173432680Y-123419933D02*
X173416014Y-123436600D01*
X173416014Y-123436600D02*
X173382680Y-123453266D01*
X173382680Y-123453266D02*
X173249347Y-123453266D01*
X173249347Y-123453266D02*
X173249347Y-123103266D01*
X173249347Y-123103266D02*
X173366014Y-123103266D01*
X173366014Y-123103266D02*
X173399347Y-123119933D01*
X173399347Y-123119933D02*
X173416014Y-123136600D01*
X173416014Y-123136600D02*
X173432680Y-123169933D01*
X173432680Y-123169933D02*
X173432680Y-123203266D01*
X173432680Y-123203266D02*
X173416014Y-123236600D01*
X173416014Y-123236600D02*
X173399347Y-123253266D01*
X173399347Y-123253266D02*
X173366014Y-123269933D01*
X173366014Y-123269933D02*
X173249347Y-123269933D01*
X173549347Y-123103266D02*
X173749347Y-123103266D01*
X173649347Y-123453266D02*
X173649347Y-123103266D01*
X173982681Y-123269933D02*
X173866014Y-123269933D01*
X173866014Y-123453266D02*
X173866014Y-123103266D01*
X173866014Y-123103266D02*
X174032681Y-123103266D01*
X174166014Y-123319933D02*
X174432681Y-123319933D01*
X174782680Y-123119933D02*
X174749347Y-123103266D01*
X174749347Y-123103266D02*
X174699347Y-123103266D01*
X174699347Y-123103266D02*
X174649347Y-123119933D01*
X174649347Y-123119933D02*
X174616014Y-123153266D01*
X174616014Y-123153266D02*
X174599347Y-123186600D01*
X174599347Y-123186600D02*
X174582680Y-123253266D01*
X174582680Y-123253266D02*
X174582680Y-123303266D01*
X174582680Y-123303266D02*
X174599347Y-123369933D01*
X174599347Y-123369933D02*
X174616014Y-123403266D01*
X174616014Y-123403266D02*
X174649347Y-123436600D01*
X174649347Y-123436600D02*
X174699347Y-123453266D01*
X174699347Y-123453266D02*
X174732680Y-123453266D01*
X174732680Y-123453266D02*
X174782680Y-123436600D01*
X174782680Y-123436600D02*
X174799347Y-123419933D01*
X174799347Y-123419933D02*
X174799347Y-123303266D01*
X174799347Y-123303266D02*
X174732680Y-123303266D01*
X174949347Y-123453266D02*
X174949347Y-123103266D01*
X174949347Y-123103266D02*
X175082680Y-123103266D01*
X175082680Y-123103266D02*
X175116014Y-123119933D01*
X175116014Y-123119933D02*
X175132680Y-123136600D01*
X175132680Y-123136600D02*
X175149347Y-123169933D01*
X175149347Y-123169933D02*
X175149347Y-123219933D01*
X175149347Y-123219933D02*
X175132680Y-123253266D01*
X175132680Y-123253266D02*
X175116014Y-123269933D01*
X175116014Y-123269933D02*
X175082680Y-123286600D01*
X175082680Y-123286600D02*
X174949347Y-123286600D01*
X175299347Y-123103266D02*
X175299347Y-123386600D01*
X175299347Y-123386600D02*
X175316014Y-123419933D01*
X175316014Y-123419933D02*
X175332680Y-123436600D01*
X175332680Y-123436600D02*
X175366014Y-123453266D01*
X175366014Y-123453266D02*
X175432680Y-123453266D01*
X175432680Y-123453266D02*
X175466014Y-123436600D01*
X175466014Y-123436600D02*
X175482680Y-123419933D01*
X175482680Y-123419933D02*
X175499347Y-123386600D01*
X175499347Y-123386600D02*
X175499347Y-123103266D01*
X175666014Y-123319933D02*
X175932681Y-123319933D01*
X176099347Y-123453266D02*
X176099347Y-123103266D01*
X176099347Y-123103266D02*
X176216014Y-123353266D01*
X176216014Y-123353266D02*
X176332680Y-123103266D01*
X176332680Y-123103266D02*
X176332680Y-123453266D01*
X176499347Y-123453266D02*
X176499347Y-123219933D01*
X176499347Y-123103266D02*
X176482680Y-123119933D01*
X176482680Y-123119933D02*
X176499347Y-123136600D01*
X176499347Y-123136600D02*
X176516014Y-123119933D01*
X176516014Y-123119933D02*
X176499347Y-123103266D01*
X176499347Y-123103266D02*
X176499347Y-123136600D01*
X176666014Y-123219933D02*
X176666014Y-123453266D01*
X176666014Y-123253266D02*
X176682681Y-123236600D01*
X176682681Y-123236600D02*
X176716014Y-123219933D01*
X176716014Y-123219933D02*
X176766014Y-123219933D01*
X176766014Y-123219933D02*
X176799347Y-123236600D01*
X176799347Y-123236600D02*
X176816014Y-123269933D01*
X176816014Y-123269933D02*
X176816014Y-123453266D01*
X176982681Y-123453266D02*
X176982681Y-123219933D01*
X176982681Y-123103266D02*
X176966014Y-123119933D01*
X176966014Y-123119933D02*
X176982681Y-123136600D01*
X176982681Y-123136600D02*
X176999348Y-123119933D01*
X176999348Y-123119933D02*
X176982681Y-123103266D01*
X176982681Y-123103266D02*
X176982681Y-123136600D01*
X177149348Y-123319933D02*
X177416015Y-123319933D01*
X177582681Y-123453266D02*
X177582681Y-123103266D01*
X177699348Y-123103266D02*
X177899348Y-123103266D01*
X177799348Y-123453266D02*
X177799348Y-123103266D01*
X177982682Y-123103266D02*
X178216015Y-123453266D01*
X178216015Y-123103266D02*
X177982682Y-123453266D01*
X178349348Y-123319933D02*
X178616015Y-123319933D01*
X178766014Y-123353266D02*
X178932681Y-123353266D01*
X178732681Y-123453266D02*
X178849348Y-123103266D01*
X178849348Y-123103266D02*
X178966014Y-123453266D01*
X179232681Y-123453266D02*
X179232681Y-123103266D01*
X179232681Y-123436600D02*
X179199348Y-123453266D01*
X179199348Y-123453266D02*
X179132681Y-123453266D01*
X179132681Y-123453266D02*
X179099348Y-123436600D01*
X179099348Y-123436600D02*
X179082681Y-123419933D01*
X179082681Y-123419933D02*
X179066014Y-123386600D01*
X179066014Y-123386600D02*
X179066014Y-123286600D01*
X179066014Y-123286600D02*
X179082681Y-123253266D01*
X179082681Y-123253266D02*
X179099348Y-123236600D01*
X179099348Y-123236600D02*
X179132681Y-123219933D01*
X179132681Y-123219933D02*
X179199348Y-123219933D01*
X179199348Y-123219933D02*
X179232681Y-123236600D01*
X179549348Y-123453266D02*
X179549348Y-123269933D01*
X179549348Y-123269933D02*
X179532681Y-123236600D01*
X179532681Y-123236600D02*
X179499348Y-123219933D01*
X179499348Y-123219933D02*
X179432681Y-123219933D01*
X179432681Y-123219933D02*
X179399348Y-123236600D01*
X179549348Y-123436600D02*
X179516015Y-123453266D01*
X179516015Y-123453266D02*
X179432681Y-123453266D01*
X179432681Y-123453266D02*
X179399348Y-123436600D01*
X179399348Y-123436600D02*
X179382681Y-123403266D01*
X179382681Y-123403266D02*
X179382681Y-123369933D01*
X179382681Y-123369933D02*
X179399348Y-123336600D01*
X179399348Y-123336600D02*
X179432681Y-123319933D01*
X179432681Y-123319933D02*
X179516015Y-123319933D01*
X179516015Y-123319933D02*
X179549348Y-123303266D01*
X179716015Y-123219933D02*
X179716015Y-123569933D01*
X179716015Y-123236600D02*
X179749348Y-123219933D01*
X179749348Y-123219933D02*
X179816015Y-123219933D01*
X179816015Y-123219933D02*
X179849348Y-123236600D01*
X179849348Y-123236600D02*
X179866015Y-123253266D01*
X179866015Y-123253266D02*
X179882682Y-123286600D01*
X179882682Y-123286600D02*
X179882682Y-123386600D01*
X179882682Y-123386600D02*
X179866015Y-123419933D01*
X179866015Y-123419933D02*
X179849348Y-123436600D01*
X179849348Y-123436600D02*
X179816015Y-123453266D01*
X179816015Y-123453266D02*
X179749348Y-123453266D01*
X179749348Y-123453266D02*
X179716015Y-123436600D01*
X179982682Y-123219933D02*
X180116015Y-123219933D01*
X180032682Y-123103266D02*
X180032682Y-123403266D01*
X180032682Y-123403266D02*
X180049349Y-123436600D01*
X180049349Y-123436600D02*
X180082682Y-123453266D01*
X180082682Y-123453266D02*
X180116015Y-123453266D01*
X180366015Y-123436600D02*
X180332682Y-123453266D01*
X180332682Y-123453266D02*
X180266015Y-123453266D01*
X180266015Y-123453266D02*
X180232682Y-123436600D01*
X180232682Y-123436600D02*
X180216015Y-123403266D01*
X180216015Y-123403266D02*
X180216015Y-123269933D01*
X180216015Y-123269933D02*
X180232682Y-123236600D01*
X180232682Y-123236600D02*
X180266015Y-123219933D01*
X180266015Y-123219933D02*
X180332682Y-123219933D01*
X180332682Y-123219933D02*
X180366015Y-123236600D01*
X180366015Y-123236600D02*
X180382682Y-123269933D01*
X180382682Y-123269933D02*
X180382682Y-123303266D01*
X180382682Y-123303266D02*
X180216015Y-123336600D01*
X180532682Y-123453266D02*
X180532682Y-123219933D01*
X180532682Y-123286600D02*
X180549349Y-123253266D01*
X180549349Y-123253266D02*
X180566015Y-123236600D01*
X180566015Y-123236600D02*
X180599349Y-123219933D01*
X180599349Y-123219933D02*
X180632682Y-123219933D01*
D11*
%TO.C,REF\u002A\u002A*%
X162970000Y-100375000D02*
X162970000Y-107625000D01*
X162970000Y-107625000D02*
X200030000Y-107625000D01*
X200030000Y-100375000D02*
X162970000Y-100375000D01*
X200030000Y-107625000D02*
X200030000Y-100375000D01*
D12*
X188910000Y-108250000D02*
G75*
G02*
X188710000Y-108250000I-100000J0D01*
G01*
X188710000Y-108250000D02*
G75*
G02*
X188910000Y-108250000I100000J0D01*
G01*
D11*
X181268250Y-115190000D02*
X181268250Y-125100000D01*
X181268250Y-115190000D02*
X182546030Y-115190000D01*
X183840470Y-115190000D02*
X185546030Y-115190000D01*
X186840470Y-115190000D02*
X188546030Y-115190000D01*
X189840469Y-115190000D02*
X191546031Y-115190000D01*
X192840470Y-115190000D02*
X194546030Y-115190000D01*
X195840470Y-115190000D02*
X197088250Y-115190000D01*
X199298250Y-115190000D02*
X200118250Y-115190000D01*
X200118250Y-115190000D02*
X200118250Y-125100000D01*
D12*
X200968250Y-116180000D02*
G75*
G02*
X200768250Y-116180000I-100000J0D01*
G01*
X200768250Y-116180000D02*
G75*
G02*
X200968250Y-116180000I100000J0D01*
G01*
%TD*%
M02*
